# xmcd
# 
# Track frame offsets:
#     183
#     13578
#     30840
#     46383
#     61718
#     75430
#     101523
#     116333
#     132665
#     150630
# 
# Disc length: 2205
# 
# Revision: 2
# Processed by: cddbd v1.5.2PL0 Copyright (c) Steve Scherf et al.
# Submitted via: fre:ac v1.0.27
# 
DISCID=6b089b0a
DTITLE=Gerard Joling - Love Is In Your Eyes
DYEAR=1985
DGENRE=Ballad
TTITLE0=Love Is In Your Eyes
TTITLE1=I Can Only Give You Everything
TTITLE2=No Strings Attached
TTITLE3=What Can I Do
TTITLE4=Heartbeat
TTITLE5=Ticket To The Tropics
TTITLE6=Love Don't Pay
TTITLE7=We Don't Have To Say The Words
TTITLE8=Hearts On Fire
TTITLE9=Crying
EXTD=YEAR: 1985
EXTT0=
EXTT1=
EXTT2=
EXTT3=
EXTT4=
EXTT5=
EXTT6=
EXTT7=
EXTT8=
EXTT9=
PLAYORDER=
